<svg xmlns="http://www.w3.org/2000/svg" viewBox="0 0 512 512"> <path fill="#e02128" d="M464 128H352V96c0-35.3-28.7-64-64-64h-64c-35.3 0-64 28.7-64 64v32H48c-26.5 0-48 21.5-48 48v288c0 26.5 21.5 48 48 48h416c26.5 0 48-21.5 48-48V176c0-26.5-21.5-48-48-48zM192 96c0-17.7 14.3-32 32-32h64c17.7 0 32 14.3 32 32v32H192V96z"/> <rect x="0" y="240" width="512" height="32" fill="#a01018"/> <circle cx="256" cy="256" r="48" fill="white" stroke="#a01018" stroke-width="8"/> <path d="M256 230v52M230 256h52" stroke="#e02128" stroke-width="12" stroke-linecap="round"/> </svg>