<svg xmlns="http://www.w3.org/2000/svg" viewBox="0 0 512 512">
  <path fill="#FFD700" d="M464 96H48c-26.5 0-48 21.5-48 48v224c0 26.5 21.5 48 48 48h416c26.5 0 48-21.5 48-48V144c0-26.5-21.5-48-48-48zM313.2 240.2c-5.8 4.6-12.8 7.3-20.4 7.8 0 0-.1 0-.1 0h-5.4c-7.6-.5-14.6-3.2-20.4-7.8-1.5-1.2-3.1-2.4-4.5-3.8l-37.4-37.4c-12.5-12.5-12.5-32.8 0-45.3s32.8-12.5 45.3 0l37.4 37.4 37.4-37.4c12.5-12.5 32.8-12.5 45.3 0s12.5 32.8 0 45.3l-37.4 37.4c-1.4 1.4-3 2.6-4.5 3.8zm160.8 127.8c0 13.3-10.7 24-24 24h-32c-13.3 0-24-10.7-24-24s10.7-24 24-24h32c13.3 0 24 10.7 24 24zM88 192c-13.3 0-24-10.7-24-24s10.7-24 24-24h32c13.3 0 24 10.7 24 24s-10.7 24-24 24H88z"/>
  <rect x="232" y="32" width="48" height="64" rx="8" fill="#555"/>
</svg>
